<svg width="54" height="54" viewBox="0 0 55 55" fill="none" xmlns="http://www.w3.org/2000/svg">
    <path fillRule="evenodd" clipRule="evenodd"
        d="M50.5405 17.1798C50.3883 13.2596 49.0414 10.0311 46.5045 7.49453C43.8914 4.88182 40.6626 3.53511 36.818 3.45902C35.7409 3.38292 35.1644 2.80641 35.0883 1.72951C35.1644 0.652601 35.7409 0.0760983 36.818 0C47.2725 0.998502 53.0014 6.72663 54 17.1798C53.8478 18.1783 53.2712 18.7548 52.2703 18.9093C51.1932 18.7548 50.6166 18.1783 50.5405 17.1798Z"
        fill="#F97316" />
    <path fillRule="evenodd" clipRule="evenodd"
        d="M45.1241 17.0645C44.6605 12.0674 41.8953 9.30015 36.8191 8.76285C35.742 8.68675 35.1655 8.11025 35.0894 7.03334C35.1655 5.95643 35.742 5.37993 36.8191 5.30383C44.0471 5.99564 48.007 9.91585 48.6943 17.0645C48.5421 18.1414 47.9286 18.7548 46.8515 18.9093C45.8552 18.7548 45.2786 18.1414 45.1241 17.0645Z"
        fill="#F97316" />
    <path fillRule="evenodd" clipRule="evenodd"
        d="M12.8348 29.4115C13.6812 31.9481 15.1803 34.3302 17.3321 36.5601C19.7929 38.9422 22.406 40.5195 25.1735 41.2897C24.9429 41.9054 24.597 42.4427 24.1357 42.9016C20.9069 45.3621 17.1776 44.7487 12.9501 41.0591C9.18389 36.7538 8.5289 32.9881 10.9897 29.7597C11.451 29.2985 11.9907 28.9526 12.6041 28.722C12.6803 28.9526 12.7587 29.1809 12.8348 29.4115V29.4115Z"
        fill="#F97316" />
    <path fillRule="evenodd" clipRule="evenodd"
        d="M34.9735 19.1402C35.3587 19.4469 35.7438 19.6775 36.1267 19.832L33.3614 22.5992L28.4005 27.6724C27.9393 27.9791 27.5172 27.9791 27.1297 27.6724L26.4402 26.9806C26.1311 26.5955 26.1311 26.1735 26.4402 25.7123L31.5117 20.6391L34.1663 17.9872C34.3969 18.37 34.6668 18.7551 34.9735 19.1402Z"
        fill="#485766" />
    <path fillRule="evenodd" clipRule="evenodd"
        d="M40.7422 17.8716C40.1241 18.4873 39.3561 18.794 38.4359 18.794C38.0507 18.794 37.6655 18.7179 37.2827 18.5634C36.8975 18.4089 36.5124 18.1783 36.1295 17.8716C35.8205 17.4865 35.5899 17.1037 35.4353 16.7186C35.2831 16.3335 35.2047 15.9507 35.2047 15.5656C35.2047 14.7193 35.5115 13.9514 36.1272 13.2596C36.8191 12.6439 37.5871 12.3372 38.4335 12.3372C39.2777 12.3372 40.0457 12.6439 40.7399 13.2596C41.3533 13.9514 41.6601 14.7193 41.6601 15.5656C41.6624 16.488 41.3556 17.2559 40.7422 17.8716V17.8716Z"
        fill="#485766" />
    <path fillRule="evenodd" clipRule="evenodd"
        d="M49.3876 44.2901C49.6944 44.7536 49.6944 45.1756 49.3876 45.5607L42.1228 52.7094C41.7399 53.0945 41.3548 53.0945 40.9696 52.7094L30.4759 42.3323C30.9372 42.2562 31.3961 42.1801 31.862 42.1017C33.4741 41.6405 34.8579 40.8726 36.011 39.7957C37.0881 38.6427 37.8584 37.2591 38.3173 35.6426C38.4719 34.9531 38.5503 34.259 38.5503 33.5695L49.3876 44.2901Z"
        fill="#F97316" />
    <path fillRule="evenodd" clipRule="evenodd"
        d="M20.4314 15.3347C19.6634 15.3347 18.9715 15.4131 18.3557 15.5653C16.7413 16.0265 15.3575 16.7944 14.2043 17.8713C13.0512 19.0243 12.2832 20.4079 11.898 22.0221C11.8219 22.4833 11.7435 22.9445 11.6674 23.4057L1.17366 12.9134C0.866919 12.5283 0.866919 12.1455 1.17366 11.7603L8.43854 4.49641C8.82369 4.18971 9.20654 4.18971 9.59169 4.49641L20.4314 15.3347Z"
        fill="#F97316" />
    <path fillRule="evenodd" clipRule="evenodd"
        d="M29.5454 20.6374L27.5827 22.4822L24.5845 25.5953C23.7381 26.5961 23.7381 27.5946 24.5845 28.5954L25.2764 29.2849C26.2751 30.1312 27.2737 30.1312 28.2746 29.2849L31.3882 26.1718L33.2355 24.327C34.9237 26.5569 35.9247 28.7845 36.2337 31.0121L36.349 31.245C36.5012 32.5526 36.4667 33.8186 36.2337 35.0477C35.9247 36.2007 35.3481 37.2407 34.504 38.1631C33.5838 39.0071 32.5413 39.5836 31.3882 39.8926C30.3895 40.1255 29.3909 40.1601 28.3923 40.0079C27.4697 39.9318 26.5449 39.7773 25.6224 39.549L25.1611 39.3161C22.8548 38.5482 20.7007 37.1646 18.7034 35.1653C16.5517 32.9354 15.0918 30.6293 14.3215 28.2472C14.1669 27.6315 14.0147 27.055 13.8602 26.5177C13.8602 26.211 13.821 25.8628 13.7449 25.48C13.6688 24.4031 13.7449 23.4046 13.9755 22.4822C14.2846 21.2508 14.8611 20.2154 15.7075 19.3691C16.554 18.5228 17.5895 17.9463 18.8211 17.6396C19.9742 17.3329 21.2427 17.2937 22.6265 17.5243C23.4729 17.6788 24.2801 17.8702 25.0481 18.1008C26.5864 18.6381 28.0855 19.4844 29.5454 20.6374Z"
        fill="#485766" />
</svg>